<?xml version="1.0" standalone="no"?>
<!DOCTYPE svg PUBLIC "-//W3C//DTD SVG 20010904//EN"
 "http://www.w3.org/TR/2001/REC-SVG-20010904/DTD/svg10.dtd">
<svg version="1.0" xmlns="http://www.w3.org/2000/svg"
 width="245.000000pt" height="245.000000pt" viewBox="0 0 245.000000 245.000000"
 preserveAspectRatio="xMidYMid meet">
<metadata>
Created by potrace 1.14, written by Peter Selinger 2001-2017
</metadata>
<g transform="translate(0.000000,245.000000) scale(0.100000,-0.100000)"
fill="#000000" stroke="none">
<path d="M538 2093 c-48 -55 -54 -121 -22 -227 13 -44 24 -94 24 -110 0 -30 0
-30 -34 19 -40 58 -79 98 -120 119 -91 47 -89 -94 3 -208 17 -21 31 -40 31
-41 0 -2 -17 3 -37 10 -61 21 -72 0 -24 -44 26 -22 30 -34 31 -81 2 -76 1 -82
-10 -75 -6 4 -7 -1 -3 -12 6 -16 5 -17 -13 -3 -17 14 -18 13 -6 -1 10 -13 9
-22 -3 -45 -8 -16 -18 -44 -21 -61 -3 -18 -10 -33 -15 -33 -5 0 -9 -5 -9 -11
0 -5 4 -8 9 -5 4 3 9 -12 10 -34 2 -62 4 -70 13 -64 4 3 8 -2 8 -11 0 -9 -4
-14 -8 -11 -5 3 -9 -1 -9 -9 0 -10 4 -12 12 -5 8 7 18 4 30 -10 14 -15 15 -25
8 -47 -13 -37 1 -87 29 -104 17 -10 57 -14 148 -13 69 1 130 -3 136 -8 7 -5
10 -18 7 -28 -7 -25 11 -46 56 -70 l36 -18 66 33 c60 30 68 31 92 18 34 -17
34 -23 0 -55 -37 -35 -233 -178 -244 -178 -5 0 -11 12 -15 28 -30 133 -27 127
-69 128 -49 1 -163 -21 -228 -43 -54 -19 -107 -64 -107 -91 0 -45 247 -304
326 -342 41 -21 56 -22 140 -17 267 18 446 131 519 329 l17 47 53 -26 52 -26
139 48 c76 26 142 51 146 54 4 4 8 93 8 199 l1 192 25 0 c14 0 23 -3 21 -7 -3
-5 15 -6 39 -4 27 2 51 -2 61 -10 12 -10 15 -10 9 -1 -5 8 0 12 14 12 28 0
120 40 120 52 0 6 8 7 17 4 10 -4 15 -4 11 -1 -10 11 23 96 34 88 7 -4 8 -1 4
6 -5 7 -2 18 6 24 8 7 23 32 33 57 10 25 20 47 21 48 1 2 16 -6 32 -18 17 -13
42 -22 56 -22 15 0 23 -5 19 -11 -4 -6 -1 -7 8 -1 8 5 16 9 19 9 3 0 21 7 40
14 72 29 110 82 110 154 0 39 -5 49 -35 76 -20 17 -47 31 -60 32 -82 3 -94 1
-110 -14 -9 -9 -23 -17 -31 -17 -19 0 -18 -15 3 -31 13 -11 15 -11 9 -1 -10
16 23 44 42 37 7 -3 10 0 7 5 -4 6 16 10 50 10 49 0 60 -4 86 -29 60 -60 25
-170 -66 -205 -48 -19 -94 -20 -129 -4 -22 9 -24 14 -13 27 10 14 10 14 -4 3
-14 -10 -18 -10 -23 4 -8 22 -8 46 2 41 4 -3 8 14 9 36 4 105 8 133 18 139 6
5 5 8 -3 8 -7 0 -10 5 -6 11 3 6 8 25 10 42 9 97 24 133 76 186 38 39 95 67
156 77 23 4 42 10 42 14 0 17 -72 52 -132 64 -89 19 -245 18 -283 -1 -31 -17
-65 -50 -65 -65 0 -4 -8 -8 -17 -9 -10 0 -13 -3 -7 -5 8 -3 7 -19 -2 -54 -7
-27 -10 -59 -8 -72 3 -13 -8 2 -25 32 -46 82 -96 110 -211 117 -55 4 -90 10
-90 17 0 6 -4 5 -9 -2 -4 -7 -23 -17 -42 -21 -19 -5 -41 -10 -49 -12 -8 -2
-26 -14 -40 -26 -27 -25 -45 -30 -34 -10 4 7 3 9 -2 4 -5 -5 -9 -12 -10 -15 0
-4 -9 -22 -20 -39 -19 -34 -41 -46 -30 -17 3 9 2 12 -5 9 -5 -4 -7 -16 -4 -26
6 -19 2 -20 -82 -18 -48 1 -94 7 -102 13 -11 8 -13 8 -8 0 9 -15 -69 -24 -85
-9 -8 7 -9 7 -4 -2 4 -7 -11 -14 -46 -19 -29 -4 -55 -8 -58 -9 -3 -1 -22 -5
-43 -9 -20 -5 -40 -12 -43 -18 -3 -5 -13 -4 -22 4 -10 8 -13 9 -9 1 9 -14 -27
-28 -45 -17 -7 4 -10 3 -5 -1 4 -5 -10 -16 -30 -25 -30 -13 -34 -18 -20 -23 9
-3 17 -2 17 3 0 6 6 10 13 10 6 0 23 6 37 13 14 7 32 12 40 12 8 0 18 3 21 8
6 8 51 20 86 21 11 1 19 5 16 10 -3 5 0 6 8 4 8 -3 22 -1 32 4 12 6 17 5 17
-4 0 -10 3 -9 9 1 7 11 42 15 150 17 78 2 141 1 141 -1 0 -2 -5 -16 -12 -32
-6 -15 -12 -77 -14 -138 -1 -60 -2 -113 -3 -117 -1 -4 -14 -3 -31 2 -16 5 -30
6 -30 2 0 -4 -5 0 -11 8 -9 13 -10 13 -6 0 7 -23 -34 -92 -51 -85 -45 17 -66
14 -167 -24 -59 -22 -112 -38 -118 -34 -5 3 -7 1 -3 -5 5 -9 -18 -18 -64 -27
-3 0 -16 -7 -30 -14 -21 -12 -18 -7 13 27 20 23 37 47 37 53 0 5 6 7 13 3 10
-6 10 -4 0 7 -7 7 -13 17 -13 22 0 4 6 5 13 1 6 -4 4 2 -6 13 -9 11 -14 23
-10 27 5 5 -8 5 -27 1 -37 -8 -90 -42 -90 -59 0 -5 -3 -7 -6 -3 -7 6 -34 -17
-34 -28 0 -4 -11 -20 -24 -36 -24 -28 -24 -28 -30 -6 -9 33 -7 69 3 63 4 -3 7
6 5 19 -1 14 4 31 12 38 32 29 42 36 48 31 3 -2 4 -1 1 2 -2 4 1 16 7 28 27
49 23 238 -6 284 -4 7 -5 16 -2 19 3 3 1 12 -5 20 -8 8 -8 13 -1 13 6 0 12 -3
15 -7 2 -5 3 -3 1 3 -1 6 4 11 11 11 7 0 11 -6 8 -13 -7 -20 14 -25 28 -7 12
15 12 16 -6 9 -11 -4 -16 -4 -12 0 4 4 2 13 -4 21 -14 17 2 17 20 1 11 -11 12
-10 6 1 -5 9 -4 12 2 8 6 -4 16 0 23 8 7 8 16 12 21 10 10 -7 3 -43 -13 -63
-11 -13 -10 -15 4 -9 12 4 15 2 12 -8 -5 -12 -10 -11 -32 3 -25 16 -26 16 -19
-1 4 -10 7 -21 7 -23 0 -3 4 -3 9 1 5 3 12 1 15 -3 3 -5 -10 -8 -29 -7 -20 2
-38 -1 -41 -6 -3 -5 0 -9 6 -9 6 0 9 -4 5 -9 -3 -5 -1 -12 5 -16 5 -3 10 1 10
9 0 9 5 16 11 16 6 0 8 -9 4 -22 -5 -20 -4 -21 5 -5 6 9 22 29 36 44 13 14 24
35 24 45 0 12 4 17 13 12 10 -6 10 -4 0 7 -7 7 -13 21 -13 31 0 10 -5 18 -11
18 -5 0 -8 3 -5 8 6 10 -15 37 -39 47 -27 11 -85 13 -91 3 -11 -17 -23 -6 -49
47 -28 59 -50 69 -77 38z m226 -107 c26 -17 27 -19 12 -34 -9 -10 -29 -17 -44
-17 -15 0 -26 -5 -25 -10 1 -6 -7 -12 -18 -12 -17 -2 -24 13 -20 40 0 4 -3 7
-8 7 -10 0 -9 19 1 36 11 16 71 11 102 -10z m-303 -606 c6 0 8 -4 5 -8 -2 -4
-1 -14 3 -21 7 -10 13 -11 27 -2 18 10 18 10 1 11 -17 0 -17 1 -3 16 16 15 20
27 17 50 -1 8 8 8 34 0 19 -6 35 -15 35 -19 0 -5 -3 -6 -7 -4 -5 3 -9 -16 -10
-41 -2 -26 -4 -64 -5 -84 -1 -21 -6 -35 -11 -31 -6 4 -7 1 -1 -8 14 -24 13
-79 -2 -79 -8 0 -14 10 -15 23 -2 51 -30 157 -41 151 -4 -3 -3 -14 3 -25 6
-12 8 -23 5 -26 -3 -4 -2 -11 3 -17 5 -6 12 -32 14 -58 l6 -48 -47 -1 c-26 -1
-50 -1 -54 0 -4 0 -5 -6 -2 -14 4 -8 2 -15 -2 -15 -18 1 -45 29 -47 48 0 11
-4 19 -8 16 -11 -6 -16 15 -18 80 -2 44 0 56 10 51 8 -5 10 -4 5 4 -9 14 14
81 28 81 5 0 6 3 3 7 -4 3 -2 12 5 20 9 11 15 7 35 -22 13 -19 28 -35 34 -35z
m1195 22 c-12 -11 -18 7 -10 30 l8 23 4 -23 c2 -13 1 -26 -2 -30z m-1050 -61
c-2 -9 -12 -34 -21 -56 l-16 -40 6 55 c4 30 8 64 10 75 2 11 4 27 5 35 1 8 6
0 12 -19 5 -19 7 -41 4 -50z m1089 -22 c-3 -4 0 -11 6 -15 8 -5 10 -2 5 7 -4
8 1 5 11 -6 24 -25 58 -45 78 -45 14 0 20 -12 16 -33 -1 -5 3 -6 9 -2 6 3 8 9
6 13 -2 4 28 7 67 6 47 0 80 5 95 14 26 17 27 15 6 -27 -8 -17 -20 -29 -25
-25 -5 3 -8 0 -7 -8 2 -8 -6 -13 -19 -12 -12 0 -21 -4 -20 -9 1 -5 -7 -12 -18
-15 -24 -6 -203 -7 -209 -1 -2 2 -6 20 -7 39 -2 21 -13 43 -27 56 -23 20 -23
21 -6 64 16 39 18 41 30 25 7 -10 11 -21 9 -26z m-997 -84 l0 -75 -28 0 c-25
0 -28 3 -26 30 1 17 -1 35 -5 42 -12 19 10 51 29 43 9 -3 13 -3 9 1 -6 6 9 34
18 34 1 0 3 -34 3 -75z m-70 -34 c3 -40 2 -41 -29 -41 -28 0 -31 2 -25 25 7
26 37 64 47 59 3 -1 6 -21 7 -43z"/>
<path d="M666 1992 c-3 -2 -2 -11 1 -19 5 -12 7 -12 14 -1 7 10 9 9 9 -4 0 -9
-6 -19 -12 -21 -10 -4 -10 -6 0 -6 7 -1 10 -7 7 -13 -4 -7 2 -3 14 10 11 12
22 18 25 13 3 -5 12 -8 19 -7 21 3 38 17 31 27 -3 6 -11 5 -21 -2 -12 -11 -14
-10 -11 6 2 16 -4 19 -35 20 -20 1 -39 0 -41 -3z m70 -25 c0 -17 -1 -17 -12
-2 -9 12 -13 13 -16 4 -3 -9 -6 -9 -10 2 -4 11 1 15 16 15 15 0 22 -6 22 -19z"/>
<path d="M355 1290 c-3 -5 -1 -10 4 -10 6 0 11 5 11 10 0 6 -2 10 -4 10 -3 0
-8 -4 -11 -10z"/>
<path d="M414 1286 c1 -8 5 -18 8 -22 4 -3 5 1 4 10 -1 8 -5 18 -8 22 -4 3 -5
-1 -4 -10z"/>
<path d="M414 1226 c1 -8 5 -18 8 -22 4 -3 5 1 4 10 -1 8 -5 18 -8 22 -4 3 -5
-1 -4 -10z"/>
<path d="M1690 1270 c0 -5 5 -10 11 -10 5 0 7 5 4 10 -3 6 -8 10 -11 10 -2 0
-4 -4 -4 -10z"/>
<path d="M1714 1232 c4 -3 14 -7 22 -8 9 -1 13 0 10 4 -4 3 -14 7 -22 8 -9 1
-13 0 -10 -4z"/>
<path d="M1814 1192 c3 -6 -2 -15 -11 -21 -10 -6 -13 -11 -7 -11 20 0 37 27
23 36 -7 4 -9 3 -5 -4z"/>
<path d="M1335 2041 c-3 -5 -2 -12 3 -15 5 -3 9 1 9 9 0 17 -3 19 -12 6z"/>
<path d="M1434 2032 c4 -3 14 -7 22 -8 9 -1 13 0 10 4 -4 3 -14 7 -22 8 -9 1
-13 0 -10 -4z"/>
<path d="M1695 2029 c-3 -4 2 -6 10 -5 21 3 28 13 10 13 -9 0 -18 -4 -20 -8z"/>
<path d="M1830 2016 c0 -2 7 -7 16 -10 8 -3 12 -2 9 4 -6 10 -25 14 -25 6z"/>
<path d="M1095 2001 c-3 -5 -2 -12 3 -15 5 -3 9 1 9 9 0 17 -3 19 -12 6z"/>
<path d="M1126 1992 c-3 -5 1 -9 9 -9 8 0 12 4 9 9 -3 4 -7 8 -9 8 -2 0 -6 -4
-9 -8z"/>
<path d="M1174 1992 c4 -3 14 -7 22 -8 9 -1 13 0 10 4 -4 3 -14 7 -22 8 -9 1
-13 0 -10 -4z"/>
<path d="M1355 1989 c-3 -4 2 -6 10 -5 21 3 28 13 10 13 -9 0 -18 -4 -20 -8z"/>
<path d="M1414 1992 c4 -3 14 -7 22 -8 9 -1 13 0 10 4 -4 3 -14 7 -22 8 -9 1
-13 0 -10 -4z"/>
<path d="M1870 1970 c0 -5 5 -10 11 -10 5 0 7 5 4 10 -3 6 -8 10 -11 10 -2 0
-4 -4 -4 -10z"/>
<path d="M1015 1950 c-3 -5 -1 -10 4 -10 6 0 11 5 11 10 0 6 -2 10 -4 10 -3 0
-8 -4 -11 -10z"/>
<path d="M1099 1958 c-5 -18 -6 -38 -1 -34 7 8 12 36 6 36 -2 0 -4 -1 -5 -2z"/>
<path d="M1295 1949 c-3 -4 2 -6 10 -5 21 3 28 13 10 13 -9 0 -18 -4 -20 -8z"/>
<path d="M769 1924 c-17 -21 -21 -46 -6 -41 7 2 11 12 9 22 -2 9 1 15 6 11 5
-3 9 1 9 9 0 19 -2 19 -18 -1z"/>
<path d="M939 1938 c-5 -18 -6 -38 -1 -34 7 8 12 36 6 36 -2 0 -4 -1 -5 -2z"/>
<path d="M1179 1938 c-5 -18 -6 -38 -1 -34 7 8 12 36 6 36 -2 0 -4 -1 -5 -2z"/>
<path d="M1876 1928 c3 -5 10 -6 15 -3 13 9 11 12 -6 12 -8 0 -12 -4 -9 -9z"/>
<path d="M853 1913 c4 -3 1 -13 -6 -22 -11 -14 -10 -14 5 -2 16 12 16 31 1 31
-4 0 -3 -3 0 -7z"/>
<path d="M1234 1912 c4 -3 14 -7 22 -8 9 -1 13 0 10 4 -4 3 -14 7 -22 8 -9 1
-13 0 -10 -4z"/>
<path d="M695 1870 c-9 -14 2 -29 20 -26 24 3 25 11 5 24 -12 7 -21 8 -25 2z"/>
<path d="M994 1872 c4 -3 14 -7 22 -8 9 -1 13 0 10 4 -4 3 -14 7 -22 8 -9 1
-13 0 -10 -4z"/>
<path d="M1054 1872 c4 -3 14 -7 22 -8 9 -1 13 0 10 4 -4 3 -14 7 -22 8 -9 1
-13 0 -10 -4z"/>
<path d="M1235 1869 c-3 -4 2 -6 10 -5 21 3 28 13 10 13 -9 0 -18 -4 -20 -8z"/>
<path d="M874 1832 c4 -3 14 -7 22 -8 9 -1 13 0 10 4 -4 3 -14 7 -22 8 -9 1
-13 0 -10 -4z"/>
<path d="M1055 1790 c-3 -5 -1 -10 4 -10 6 0 11 5 11 10 0 6 -2 10 -4 10 -3 0
-8 -4 -11 -10z"/>
<path d="M1235 1789 c-3 -4 2 -6 10 -5 21 3 28 13 10 13 -9 0 -18 -4 -20 -8z"/>
<path d="M1174 1766 c1 -8 5 -18 8 -22 4 -3 5 1 4 10 -1 8 -5 18 -8 22 -4 3
-5 -1 -4 -10z"/>
<path d="M893 1755 c0 -8 4 -12 9 -9 5 3 6 10 3 15 -9 13 -12 11 -12 -6z"/>
<path d="M975 1750 c-3 -5 -1 -10 4 -10 6 0 11 5 11 10 0 6 -2 10 -4 10 -3 0
-8 -4 -11 -10z"/>
<path d="M849 1727 c6 -8 7 -18 3 -22 -4 -5 -1 -5 6 -1 10 6 10 11 1 22 -6 8
-14 14 -16 14 -3 0 0 -6 6 -13z"/>
<path d="M1119 1723 c-13 -16 -12 -17 4 -4 9 7 17 15 17 17 0 8 -8 3 -21 -13z"/>
<path d="M1016 1708 c3 -5 10 -6 15 -3 13 9 11 12 -6 12 -8 0 -12 -4 -9 -9z"/>
<path d="M1174 1706 c1 -8 5 -18 8 -22 4 -3 5 1 4 10 -1 8 -5 18 -8 22 -4 3
-5 -1 -4 -10z"/>
<path d="M1250 1710 c0 -5 5 -10 11 -10 5 0 7 5 4 10 -3 6 -8 10 -11 10 -2 0
-4 -4 -4 -10z"/>
<path d="M793 1685 c0 -8 4 -12 9 -9 4 3 8 9 8 15 0 5 -4 9 -8 9 -5 0 -9 -7
-9 -15z"/>
<path d="M1099 1698 c-5 -18 -6 -38 -1 -34 7 8 12 36 6 36 -2 0 -4 -1 -5 -2z"/>
<path d="M735 1670 c-3 -5 -1 -10 4 -10 6 0 11 5 11 10 0 6 -2 10 -4 10 -3 0
-8 -4 -11 -10z"/>
<path d="M853 1665 c0 -8 4 -12 9 -9 5 3 6 10 3 15 -9 13 -12 11 -12 -6z"/>
<path d="M935 1670 c3 -5 8 -10 11 -10 2 0 4 5 4 10 0 6 -5 10 -11 10 -5 0 -7
-4 -4 -10z"/>
<path d="M834 1632 c4 -3 14 -7 22 -8 9 -1 13 0 10 4 -4 3 -14 7 -22 8 -9 1
-13 0 -10 -4z"/>
<path d="M974 1626 c1 -8 5 -18 8 -22 4 -3 5 1 4 10 -1 8 -5 18 -8 22 -4 3 -5
-1 -4 -10z"/>
<path d="M1055 1630 c-3 -5 -1 -10 4 -10 6 0 11 5 11 10 0 6 -2 10 -4 10 -3 0
-8 -4 -11 -10z"/>
<path d="M1126 1628 c3 -5 10 -6 15 -3 13 9 11 12 -6 12 -8 0 -12 -4 -9 -9z"/>
<path d="M1215 1630 c3 -5 8 -10 11 -10 2 0 4 5 4 10 0 6 -5 10 -11 10 -5 0
-7 -4 -4 -10z"/>
<path d="M735 1590 c-3 -5 -1 -10 4 -10 6 0 11 5 11 10 0 6 -2 10 -4 10 -3 0
-8 -4 -11 -10z"/>
<path d="M939 1598 c-5 -18 -6 -38 -1 -34 7 8 12 36 6 36 -2 0 -4 -1 -5 -2z"/>
<path d="M1195 1579 c-4 -6 -5 -12 -2 -15 2 -3 7 2 10 11 7 17 1 20 -8 4z"/>
<path d="M806 1548 c3 -5 10 -6 15 -3 13 9 11 12 -6 12 -8 0 -12 -4 -9 -9z"/>
<path d="M995 1549 c-3 -4 2 -6 10 -5 21 3 28 13 10 13 -9 0 -18 -4 -20 -8z"/>
<path d="M1055 1549 c-3 -4 2 -6 10 -5 21 3 28 13 10 13 -9 0 -18 -4 -20 -8z"/>
<path d="M2174 1546 c1 -8 5 -18 8 -22 4 -3 5 1 4 10 -1 8 -5 18 -8 22 -4 3
-5 -1 -4 -10z"/>
<path d="M2259 1558 c-5 -18 -6 -38 -1 -34 7 8 12 36 6 36 -2 0 -4 -1 -5 -2z"/>
<path d="M894 1526 c1 -8 5 -18 8 -22 4 -3 5 1 4 10 -1 8 -5 18 -8 22 -4 3 -5
-1 -4 -10z"/>
<path d="M955 1530 c3 -5 8 -10 11 -10 2 0 4 5 4 10 0 6 -5 10 -11 10 -5 0 -7
-4 -4 -10z"/>
<path d="M1114 1512 c4 -3 14 -7 22 -8 9 -1 13 0 10 4 -4 3 -14 7 -22 8 -9 1
-13 0 -10 -4z"/>
<path d="M950 1490 c0 -5 5 -10 11 -10 5 0 7 5 4 10 -3 6 -8 10 -11 10 -2 0
-4 -4 -4 -10z"/>
<path d="M895 1471 c-3 -5 -2 -12 3 -15 5 -3 9 1 9 9 0 17 -3 19 -12 6z"/>
<path d="M960 1450 c-9 -6 -10 -10 -3 -10 6 0 15 5 18 10 8 12 4 12 -15 0z"/>
<path d="M886 1432 c-3 -5 1 -9 9 -9 8 0 12 4 9 9 -3 4 -7 8 -9 8 -2 0 -6 -4
-9 -8z"/>
<path d="M2194 1432 c4 -3 14 -7 22 -8 9 -1 13 0 10 4 -4 3 -14 7 -22 8 -9 1
-13 0 -10 -4z"/>
<path d="M2255 1429 c-3 -4 2 -6 10 -5 21 3 28 13 10 13 -9 0 -18 -4 -20 -8z"/>
<path d="M275 1389 c-3 -4 2 -6 10 -5 21 3 28 13 10 13 -9 0 -18 -4 -20 -8z"/>
<path d="M2135 1370 c3 -5 8 -10 11 -10 2 0 4 5 4 10 0 6 -5 10 -11 10 -5 0
-7 -4 -4 -10z"/>
<path d="M2296 1351 c-3 -5 2 -15 12 -22 15 -12 16 -12 5 2 -7 9 -10 19 -6 22
3 4 4 7 0 7 -3 0 -8 -4 -11 -9z"/>
<path d="M2119 1348 c-5 -18 -6 -38 -1 -34 7 8 12 36 6 36 -2 0 -4 -1 -5 -2z"/>
<path d="M255 1321 c-3 -5 -2 -12 3 -15 5 -3 9 1 9 9 0 17 -3 19 -12 6z"/>
<path d="M2194 1312 c4 -3 14 -7 22 -8 9 -1 13 0 10 4 -4 3 -14 7 -22 8 -9 1
-13 0 -10 -4z"/>
<path d="M2256 1308 c3 -4 11 -5 19 -1 21 7 19 12 -4 10 -11 0 -18 -5 -15 -9z"/>
<path d="M2099 1298 c-5 -18 -6 -38 -1 -34 7 8 12 36 6 36 -2 0 -4 -1 -5 -2z"/>
<path d="M256 1272 c-2 -4 -1 -14 4 -22 7 -11 9 -9 7 8 -1 24 -3 26 -11 14z"/>
<path d="M2173 1235 c0 -8 4 -12 9 -9 5 3 6 10 3 15 -9 13 -12 11 -12 -6z"/>
<path d="M2206 1232 c-3 -5 1 -9 9 -9 8 0 12 4 9 9 -3 4 -7 8 -9 8 -2 0 -6 -4
-9 -8z"/>
<path d="M2255 1229 c-3 -4 2 -6 10 -5 21 3 28 13 10 13 -9 0 -18 -4 -20 -8z"/>
<path d="M250 1190 c0 -5 5 -10 11 -10 5 0 7 5 4 10 -3 6 -8 10 -11 10 -2 0
-4 -4 -4 -10z"/>
<path d="M2053 1179 c-2 -23 3 -25 10 -4 4 8 3 16 -1 19 -4 3 -9 -4 -9 -15z"/>
<path d="M2135 1189 c-3 -4 2 -6 10 -5 21 3 28 13 10 13 -9 0 -18 -4 -20 -8z"/>
<path d="M2314 1192 c4 -3 14 -7 22 -8 9 -1 13 0 10 4 -4 3 -14 7 -22 8 -9 1
-13 0 -10 -4z"/>
<path d="M2235 1179 c-4 -6 -5 -12 -2 -15 2 -3 7 2 10 11 7 17 1 20 -8 4z"/>
<path d="M2270 1170 c0 -5 5 -10 11 -10 5 0 7 5 4 10 -3 6 -8 10 -11 10 -2 0
-4 -4 -4 -10z"/>
<path d="M1953 1145 c0 -8 4 -12 9 -9 5 3 6 10 3 15 -9 13 -12 11 -12 -6z"/>
<path d="M2114 1152 c4 -3 14 -7 22 -8 9 -1 13 0 10 4 -4 3 -14 7 -22 8 -9 1
-13 0 -10 -4z"/>
<path d="M2174 1152 c4 -3 14 -7 22 -8 9 -1 13 0 10 4 -4 3 -14 7 -22 8 -9 1
-13 0 -10 -4z"/>
<path d="M254 1126 c1 -8 5 -18 8 -22 4 -3 5 1 4 10 -1 8 -5 18 -8 22 -4 3 -5
-1 -4 -10z"/>
<path d="M2259 1138 c-5 -18 -6 -38 -1 -34 7 8 12 36 6 36 -2 0 -4 -1 -5 -2z"/>
<path d="M1775 1121 c-3 -5 -2 -12 3 -15 5 -3 9 1 9 9 0 17 -3 19 -12 6z"/>
<path d="M334 1106 c1 -8 5 -18 8 -22 4 -3 5 1 4 10 -1 8 -5 18 -8 22 -4 3 -5
-1 -4 -10z"/>
<path d="M1710 1109 c0 -5 5 -7 10 -4 6 3 10 8 10 11 0 2 -4 4 -10 4 -5 0 -10
-5 -10 -11z"/>
<path d="M1874 1112 c4 -3 14 -7 22 -8 9 -1 13 0 10 4 -4 3 -14 7 -22 8 -9 1
-13 0 -10 -4z"/>
<path d="M1973 1099 c-2 -23 3 -25 10 -4 4 8 3 16 -1 19 -4 3 -9 -4 -9 -15z"/>
<path d="M2010 1109 c0 -5 5 -7 10 -4 6 3 10 8 10 11 0 2 -4 4 -10 4 -5 0 -10
-5 -10 -11z"/>
<path d="M2155 1101 c-3 -5 -2 -12 3 -15 5 -3 9 1 9 9 0 17 -3 19 -12 6z"/>
<path d="M2333 1075 c0 -8 4 -12 9 -9 5 3 6 10 3 15 -9 13 -12 11 -12 -6z"/>
<path d="M294 1066 c1 -8 5 -18 8 -22 4 -3 5 1 4 10 -1 8 -5 18 -8 22 -4 3 -5
-1 -4 -10z"/>
<path d="M1814 1066 c1 -8 5 -18 8 -22 4 -3 5 1 4 10 -1 8 -5 18 -8 22 -4 3
-5 -1 -4 -10z"/>
<path d="M1870 1075 c0 -7 30 -13 34 -7 3 4 -4 9 -15 9 -10 1 -19 0 -19 -2z"/>
<path d="M2054 1066 c1 -8 5 -18 8 -22 4 -3 5 1 4 10 -1 8 -5 18 -8 22 -4 3
-5 -1 -4 -10z"/>
<path d="M2086 1068 c3 -5 10 -6 15 -3 13 9 11 12 -6 12 -8 0 -12 -4 -9 -9z"/>
<path d="M1726 1052 c-3 -5 1 -9 9 -9 8 0 12 4 9 9 -3 4 -7 8 -9 8 -2 0 -6 -4
-9 -8z"/>
<path d="M2126 1052 c-3 -5 1 -9 9 -9 8 0 12 4 9 9 -3 4 -7 8 -9 8 -2 0 -6 -4
-9 -8z"/>
</g>
</svg>
